<svg width="19" height="19" viewBox="0 0 19 19" fill="none" xmlns="http://www.w3.org/2000/svg">
<path id="&#229;&#189;&#162;&#231;&#138;&#182;&#231;&#187;&#147;&#229;&#144;&#136;" fill-rule="evenodd" clip-rule="evenodd" d="M0.467838 16.2722C-0.155783 16.8957 -0.155783 17.9067 0.467838 18.5303C1.09132 19.1536 2.10209 19.1536 2.72557 18.5303L9.5 11.7569L16.2744 18.5303C16.8979 19.1536 17.9087 19.1536 18.5322 18.5303C19.1558 17.9067 19.1558 16.8957 18.5322 16.2722L11.7581 9.49914L18.5322 2.72611C19.1558 2.10259 19.1558 1.09155 18.5322 0.46803C17.9087 -0.155358 16.8979 -0.15536 16.2744 0.468029L9.5 7.24141L2.72557 0.46803C2.10209 -0.155358 1.09132 -0.155359 0.467838 0.46803C-0.155783 1.09155 -0.155783 2.10259 0.467838 2.72611L7.24191 9.49914L0.467838 16.2722Z" fill="#808080"/>
</svg>
