<?xml version="1.0" encoding="UTF-8"?>
<svg width="19px" height="19px" viewBox="0 0 19 19" version="1.1" xmlns="http://www.w3.org/2000/svg" xmlns:xlink="http://www.w3.org/1999/xlink">
    <title>ic_2</title>
    <g id="页面-1" stroke="none" stroke-width="1" fill="none" fill-rule="evenodd">
        <g id="1" transform="translate(-705, -303)" fill="#7C7C7C" fill-rule="nonzero">
            <g id="编组-2" transform="translate(675, 303)">
                <g id="github-fill" transform="translate(30, 0)">
                    <path d="M9.50106133,7.94263855e-07 C4.25170372,-0.00212143108 0,4.24816528 0,9.49414853 C0,13.6425303 2.65970283,17.168867 6.36375824,18.4639094 C6.86258519,18.5891676 6.78616914,18.2346233 6.78616914,17.9925989 L6.78616914,16.3472582 C3.90570886,16.6848184 3.78896213,14.7783461 3.59579935,14.4598931 C3.20522847,13.7932647 2.28186795,13.6234231 2.55781477,13.30497 C3.21371914,12.9674098 3.88235951,13.3898908 4.65713328,14.5341988 C5.2175176,15.3642998 6.31069154,15.2241804 6.86470785,15.0861841 C6.98569992,14.5872743 7.2446654,14.14144 7.6012736,13.7953877 C4.61680259,13.2603866 3.37291923,11.4388352 3.37291923,9.27335442 C3.37291923,8.22245935 3.71891409,7.2564851 4.3981678,6.47733663 C3.96514356,5.19290933 4.43849849,4.0931848 4.50217853,3.92971223 C5.73544855,3.81931517 7.01753994,4.81288869 7.11730533,4.89144044 C7.81778572,4.70249163 8.6180315,4.60270968 9.51379734,4.60270968 C10.4138085,4.60270968 11.216177,4.70673767 11.9230254,4.8978095 C12.1628868,4.71522975 13.3515808,3.86177558 14.4978215,3.96580358 C14.5593788,4.12927614 15.0221204,5.20352443 14.6145682,6.47096757 C15.3023126,7.25223906 15.6525528,8.22670539 15.6525528,9.27972348 C15.6525528,11.4494503 14.4001788,13.2731247 11.4072171,13.7996338 C11.906044,14.2921745 12.2159535,14.975787 12.2159535,15.7315823 L12.2159535,18.1199802 C12.2329349,18.311052 12.2159535,18.5000008 12.5343537,18.5000008 C16.2935985,17.2325577 19,13.6807446 19,9.49627155 C19,4.24816528 14.7461736,7.94263855e-07 9.50106133,7.94263855e-07 Z" id="路径"></path>
                </g>
            </g>
        </g>
    </g>
</svg>